<svg width="25" height="17" viewBox="0 0 25 17" fill="none" xmlns="http://www.w3.org/2000/svg">
<path d="M11.6123 16.7578C10.8916 16.7578 10.3848 16.6494 10.0918 16.4326C9.80469 16.2158 9.66113 15.9053 9.66113 15.501C9.66113 14.9385 9.83398 14.3467 10.1797 13.7256C10.5254 13.0986 11.0205 12.5127 11.665 11.9678C12.3154 11.4229 13.0977 10.9805 14.0117 10.6406C14.9258 10.3008 15.9512 10.1309 17.0879 10.1309C18.2305 10.1309 19.2588 10.3008 20.1729 10.6406C21.0869 10.9805 21.8662 11.4229 22.5107 11.9678C23.1611 12.5127 23.6592 13.0986 24.0049 13.7256C24.3506 14.3467 24.5234 14.9385 24.5234 15.501C24.5234 15.9053 24.3799 16.2158 24.0928 16.4326C23.8057 16.6494 23.2988 16.7578 22.5723 16.7578H11.6123ZM17.0967 8.5752C16.458 8.5752 15.8691 8.40234 15.3301 8.05664C14.791 7.71094 14.3574 7.24512 14.0293 6.65918C13.707 6.06738 13.5459 5.4082 13.5459 4.68164C13.5459 3.9668 13.707 3.32227 14.0293 2.74805C14.3574 2.16797 14.791 1.70801 15.3301 1.36816C15.8691 1.02832 16.458 0.858398 17.0967 0.858398C17.7354 0.858398 18.3242 1.02539 18.8633 1.35938C19.4023 1.69336 19.833 2.15039 20.1553 2.73047C20.4834 3.30469 20.6475 3.94922 20.6475 4.66406C20.6475 5.40234 20.4834 6.06738 20.1553 6.65918C19.833 7.24512 19.4023 7.71094 18.8633 8.05664C18.3242 8.40234 17.7354 8.5752 17.0967 8.5752ZM2.09375 16.7578C1.50195 16.7578 1.08301 16.6377 0.836914 16.3975C0.59082 16.1572 0.467773 15.8203 0.467773 15.3867C0.467773 14.7891 0.620117 14.1826 0.924805 13.5674C1.22949 12.9463 1.66309 12.375 2.22559 11.8535C2.79395 11.332 3.47656 10.9102 4.27344 10.5879C5.07031 10.2656 5.95801 10.1045 6.93652 10.1045C7.72754 10.1045 8.43945 10.21 9.07227 10.4209C9.70508 10.626 10.2617 10.8838 10.7422 11.1943C10.2441 11.5869 9.81348 12.0322 9.4502 12.5303C9.08691 13.0283 8.80859 13.5381 8.61523 14.0596C8.42188 14.5811 8.3252 15.0762 8.3252 15.5449C8.3252 16.0137 8.44238 16.418 8.67676 16.7578H2.09375ZM6.93652 8.77734C6.37988 8.77734 5.86719 8.62793 5.39844 8.3291C4.92969 8.02441 4.55469 7.61719 4.27344 7.10742C3.99219 6.5918 3.85156 6.01758 3.85156 5.38477C3.8457 4.76367 3.98633 4.20117 4.27344 3.69727C4.56055 3.19336 4.93848 2.79492 5.40723 2.50195C5.87598 2.20312 6.38574 2.05371 6.93652 2.05371C7.49316 2.05371 8.00586 2.2002 8.47461 2.49316C8.94336 2.78027 9.31836 3.17578 9.59961 3.67969C9.88086 4.17773 10.0215 4.74023 10.0215 5.36719C10.0215 6.00586 9.88086 6.58301 9.59961 7.09863C9.31836 7.61426 8.94336 8.02441 8.47461 8.3291C8.01172 8.62793 7.49902 8.77734 6.93652 8.77734Z" fill="#FF5D2B"/>
</svg>
