<svg width="21" height="20" viewBox="0 0 21 20" fill="none" xmlns="http://www.w3.org/2000/svg">
<path d="M8.3291 19.1201C7.37402 19.1201 6.65039 18.877 6.1582 18.3906C5.67188 17.9043 5.42871 17.1895 5.42871 16.2461V7.36035C5.42871 6.41699 5.67188 5.70508 6.1582 5.22461C6.65039 4.73828 7.37402 4.49512 8.3291 4.49512H17.1533C18.1025 4.49512 18.8203 4.73828 19.3066 5.22461C19.7988 5.71094 20.0449 6.42285 20.0449 7.36035V16.2461C20.0449 17.1836 19.7988 17.8955 19.3066 18.3818C18.8203 18.874 18.1025 19.1201 17.1533 19.1201H8.3291ZM0.955078 12.0537V3.08887C0.955078 2.14551 1.19824 1.43066 1.68457 0.944336C2.17676 0.458008 2.90039 0.214844 3.85547 0.214844H12.7676C13.7168 0.214844 14.4346 0.460938 14.9209 0.953125C15.4131 1.43945 15.6592 2.14844 15.6592 3.08008V3.20312H8.3291C7.45605 3.20312 6.70605 3.37012 6.0791 3.7041C5.45215 4.03223 4.97168 4.50684 4.6377 5.12793C4.30371 5.74902 4.13672 6.49316 4.13672 7.36035V14.9277H3.85547C2.89453 14.9277 2.1709 14.6846 1.68457 14.1982C1.19824 13.7061 0.955078 12.9912 0.955078 12.0537Z" fill="#FF5D2B"/>
</svg>
